HIERARCHY
ROOT hip
{
  OFFSET 0.00112043 5.09927 -9.65472
  CHANNELS 6 Xposition Yposition Zposition Zrotation Xrotation Yrotation
  JOINT abdomen
  {
    OFFSET 0 -1.186 -1.5018
    CHANNELS 3 Zrotation Xrotation Yrotation
    JOINT abdomen2
    {
      OFFSET 0 9.964 0.2134
      CHANNELS 3 Zrotation Xrotation Yrotation
      JOINT chest
      {
        OFFSET 0 13.134 -3.2573
        CHANNELS 3 Zrotation Xrotation Yrotation
        JOINT neck
        {
          OFFSET 0 20.686 -1.6905
          CHANNELS 3 Zrotation Xrotation Yrotation
          JOINT head
          {
            OFFSET 0 7.238 -0.1237
            CHANNELS 3 Zrotation Xrotation Yrotation
            End Site
            {
              OFFSET 0 0 0
            }
          }
        }
        JOINT lCollar
        {
          OFFSET 1.7069 20.075 5.0056
          CHANNELS 3 Zrotation Xrotation Yrotation
          JOINT lShldr
          {
            OFFSET 13.6458 -0.047 -4.849
            CHANNELS 3 Zrotation Xrotation Yrotation
            JOINT lForeArm
            {
              OFFSET 28.3255 -0.9759 2.2888
              CHANNELS 3 Zrotation Xrotation Yrotation
              JOINT lHand
              {
                OFFSET 22.1583 -0.53 10.8316
                CHANNELS 3 Zrotation Xrotation Yrotation
                JOINT lThumb1
                {
                  OFFSET 0.786 0.112 2.5817
                  CHANNELS 3 Zrotation Xrotation Yrotation
                  JOINT lThumb2
                  {
                    OFFSET 0.3601 -0.878 4.2331
                    CHANNELS 3 Zrotation Xrotation Yrotation
                    JOINT lThumb2_End
                    {
                      OFFSET 1.8127 -1.216 2.2227
                      CHANNELS 3 Zrotation Xrotation Yrotation
                      End Site
                      {
                        OFFSET 0.0181 -0.0122 0.0222
                      }
                    }
                  }
                }
                JOINT lCarpal1
                {
                  OFFSET 0.9571 1.114 1.7695
                  CHANNELS 3 Zrotation Xrotation Yrotation
                  JOINT lIndex1
                  {
                    OFFSET 4.1246 0.487 4.1451
                    CHANNELS 3 Zrotation Xrotation Yrotation
                    JOINT lIndex2
                    {
                      OFFSET 3.4052 -1.454 2.7682
                      CHANNELS 3 Zrotation Xrotation Yrotation
                      JOINT lIndex2_End
                      {
                        OFFSET 1.4531 -1.795 1.2713
                        CHANNELS 3 Zrotation Xrotation Yrotation
                        End Site
                        {
                          OFFSET 0.0145 -0.0179 0.0127
                        }
                      }
                    }
                  }
                  JOINT lMid1
                  {
                    OFFSET 5.6954 0.21 2.1184
                    CHANNELS 3 Zrotation Xrotation Yrotation
                    JOINT lMid2
                    {
                      OFFSET 3.9766 -1.54 2.3863
                      CHANNELS 3 Zrotation Xrotation Yrotation
                      JOINT lMid2_End
                      {
                        OFFSET 1.4042 -1.926 1.125
                        CHANNELS 3 Zrotation Xrotation Yrotation
                        End Site
                        {
                          OFFSET 0.014 -0.0193 0.0113
                        }
                      }
                    }
                  }
                }
                JOINT lCarpal2
                {
                  OFFSET 2.0956 0.66 -0.3894
                  CHANNELS 3 Zrotation Xrotation Yrotation
                  JOINT lRing1
                  {
                    OFFSET 5.0395 -0.09 2.4971
                    CHANNELS 3 Zrotation Xrotation Yrotation
                    JOINT lRing2
                    {
                      OFFSET 3.7921 -1.552 1.4806
                      CHANNELS 3 Zrotation Xrotation Yrotation
                      JOINT lRing2_End
                      {
                        OFFSET 1.4655 -1.808 0.9609
                        CHANNELS 3 Zrotation Xrotation Yrotation
                        End Site
                        {
                          OFFSET 0.0147 -0.0181 0.0096
                        }
                      }
                    }
                  }
                  JOINT lPinky1
                  {
                    OFFSET 4.9141 -1.269 0.3591
                    CHANNELS 3 Zrotation Xrotation Yrotation
                    JOINT lPinky2
                    {
                      OFFSET 3.1477 -1.685 0.8462
                      CHANNELS 3 Zrotation Xrotation Yrotation
                      JOINT lPinky2_End
                      {
                        OFFSET 0.8055 -1.585 0.7955
                        CHANNELS 3 Zrotation Xrotation Yrotation
                        End Site
                        {
                          OFFSET 0.0081 -0.0158 0.008
                        }
                      }
                    }
                  }
                }
              }
            }
          }
        }
        JOINT rCollar
        {
          OFFSET -1.7069 20.075 5.0056
          CHANNELS 3 Zrotation Xrotation Yrotation
          JOINT rShldr
          {
            OFFSET -13.6458 -0.047 -4.849
            CHANNELS 3 Zrotation Xrotation Yrotation
            JOINT rForeArm
            {
              OFFSET -28.3255 -0.9759 2.2888
              CHANNELS 3 Zrotation Xrotation Yrotation
              JOINT rHand
              {
                OFFSET -22.1583 -0.53 10.8316
                CHANNELS 3 Zrotation Xrotation Yrotation
                JOINT rThumb1
                {
                  OFFSET -0.786 0.112 2.5817
                  CHANNELS 3 Zrotation Xrotation Yrotation
                  JOINT rThumb2
                  {
                    OFFSET -0.3601 -0.878 4.2331
                    CHANNELS 3 Zrotation Xrotation Yrotation
                    JOINT rThumb2_End
                    {
                      OFFSET -1.8127 -1.216 2.2227
                      CHANNELS 3 Zrotation Xrotation Yrotation
                      End Site
                      {
                        OFFSET -0.0181 -0.0122 0.0222
                      }
                    }
                  }
                }
                JOINT rCarpal1
                {
                  OFFSET -0.9571 1.114 1.7695
                  CHANNELS 3 Zrotation Xrotation Yrotation
                  JOINT rIndex1
                  {
                    OFFSET -4.1246 0.487 4.1451
                    CHANNELS 3 Zrotation Xrotation Yrotation
                    JOINT rIndex2
                    {
                      OFFSET -3.4052 -1.454 2.7682
                      CHANNELS 3 Zrotation Xrotation Yrotation
                      JOINT rIndex2_End
                      {
                        OFFSET -1.4531 -1.795 1.2713
                        CHANNELS 3 Zrotation Xrotation Yrotation
                        End Site
                        {
                          OFFSET -0.0145 -0.018 0.0127
                        }
                      }
                    }
                  }
                  JOINT rMid1
                  {
                    OFFSET -5.6954 0.21 2.1184
                    CHANNELS 3 Zrotation Xrotation Yrotation
                    JOINT rMid2
                    {
                      OFFSET -3.9766 -1.54 2.3863
                      CHANNELS 3 Zrotation Xrotation Yrotation
                      JOINT rMid2_End
                      {
                        OFFSET -1.4042 -1.926 1.125
                        CHANNELS 3 Zrotation Xrotation Yrotation
                        End Site
                        {
                          OFFSET -0.014 -0.0193 0.0113
                        }
                      }
                    }
                  }
                }
                JOINT rCarpal2
                {
                  OFFSET -2.0956 0.66 -0.3894
                  CHANNELS 3 Zrotation Xrotation Yrotation
                  JOINT rRing1
                  {
                    OFFSET -5.0395 -0.09 2.4971
                    CHANNELS 3 Zrotation Xrotation Yrotation
                    JOINT rRing2
                    {
                      OFFSET -3.7921 -1.552 1.4806
                      CHANNELS 3 Zrotation Xrotation Yrotation
                      JOINT rRing2_End
                      {
                        OFFSET -1.4655 -1.808 0.9609
                        CHANNELS 3 Zrotation Xrotation Yrotation
                        End Site
                        {
                          OFFSET -0.0147 -0.0181 0.0096
                        }
                      }
                    }
                  }
                  JOINT rPinky1
                  {
                    OFFSET -4.9141 -1.269 0.3592
                    CHANNELS 3 Zrotation Xrotation Yrotation
                    JOINT rPinky2
                    {
                      OFFSET -3.1477 -1.685 0.8462
                      CHANNELS 3 Zrotation Xrotation Yrotation
                      JOINT rPinky2_End
                      {
                        OFFSET -0.8055 -1.585 0.7955
                        CHANNELS 3 Zrotation Xrotation Yrotation
                        End Site
                        {
                          OFFSET -0.0081 -0.0158 0.008
                        }
                      }
                    }
                  }
                }
              }
            }
          }
        }
      }
    }
  }
  JOINT lThigh
  {
    OFFSET 8.367 -8.2066 0.5982
    CHANNELS 3 Zrotation Xrotation Yrotation
    JOINT lShin
    {
      OFFSET 2.1923 -43.463 -0.4932
      CHANNELS 3 Zrotation Xrotation Yrotation
      JOINT lFoot
      {
        OFFSET 0.7333 -45.8593 -2.6451
        CHANNELS 3 Zrotation Xrotation Yrotation
        End Site
        {
          OFFSET 2.6618 -4.2699 12.3931
        }
      }
    }
  }
  JOINT rThigh
  {
    OFFSET -8.367 -8.2066 0.5982
    CHANNELS 3 Zrotation Xrotation Yrotation
    JOINT rShin
    {
      OFFSET -2.1923 -43.463 -0.4931
      CHANNELS 3 Zrotation Xrotation Yrotation
      JOINT rFoot
      {
        OFFSET -0.7333 -45.8593 -2.6451
        CHANNELS 3 Zrotation Xrotation Yrotation
        End Site
        {
          OFFSET -2.6618 -4.2699 12.3931
        }
      }
    }
  }
}
MOTION
Frames:	4
Frame Time:	0.0333333
0.0889044 86.0397 2.13578 -0 -5.54856 -0 -0.171063 2.6053 3.05597 -0.481831 5.19779 6.1292 -0.48183 5.19778 6.1292 20.8059 -27.5262 -9.54147 -0.00144286 7.9373 -10.0029 26.2496 11.1117 -74.8024 -36.7707 -14.8039 -6.36155 -59.3161 -37.7847 -60.9894 -17.2582 39.0968 7.10099 0 0 -4.77083e-015 5.64478e-006 -2.13124e-006 2.19169e-006 9.54166e-015 3.18055e-015 3.18055e-015 0 0 -9.54166e-015 -6.36111e-015 -3.18055e-015 6.36111e-015 5.64478e-006 -2.13124e-006 2.19169e-006 -3.18055e-015 0 -0 -6.36111e-015 -3.18055e-015 6.36111e-015 5.64478e-006 -2.13124e-006 2.19169e-006 -3.18055e-015 0 -0 0 0 -9.54166e-015 -6.36111e-015 -3.18055e-015 6.36111e-015 5.64478e-006 -2.13124e-006 2.19169e-006 -3.18055e-015 0 -0 -6.36111e-015 -3.18055e-015 6.36111e-015 5.64478e-006 -2.13124e-006 2.19169e-006 -3.18055e-015 0 -0 1.82731 -20.8621 11.872 71.0649 4.36997 14.795 -14.9064 -7.09814 21.5343 67.2907 24.4147 -27.6301 -1.59028e-015 3.18055e-015 -1.78906e-015 -3.18055e-015 0 -5.1684e-015 -3.18055e-015 3.18055e-015 -1.98785e-015 -1.59028e-015 1.59028e-015 -1.78906e-015 -3.18055e-015 0 -4.96962e-015 4.41391e-032 1.59028e-015 -1.59028e-015 -3.18055e-015 1.59028e-015 1.59028e-015 -3.18055e-015 0 -4.96962e-015 4.41391e-032 1.59028e-015 -1.59028e-015 -3.18055e-015 1.59028e-015 1.59028e-015 -1.59028e-015 1.59028e-015 -1.78906e-015 -3.18055e-015 0 -4.96962e-015 4.41391e-032 1.59028e-015 -1.59028e-015 -3.18055e-015 1.59028e-015 1.59028e-015 -3.18055e-015 0 -4.96962e-015 4.41391e-032 1.59028e-015 -1.59028e-015 -3.18055e-015 1.59028e-015 1.59028e-015 6.51408 -20.029 14.2299 2.90765 43.9649 -0.824475 -10.7356 -17.2789 1.73702 -16.8346 -13.9826 -11.803 0.13578 27.8625 -0.981103 19.8524 -4.71603 -3.18449 
0.0874657 86.1753 2.00107 -0 -5.07254 -0 -0.183603 2.50557 3.05663 -0.501543 4.99776 6.13007 -0.501543 4.99775 6.13007 20.8413 -27.6056 -9.44163 -0.00144887 7.71914 -10.0029 26.2496 11.1118 -74.8024 -36.7707 -14.8039 -6.36155 -59.3161 -37.7847 -60.9893 -17.2698 39.1003 7.09735 -3.18055e-015 -6.36111e-015 -4.77083e-015 -4.72311e-007 4.67177e-007 5.28501e-007 -6.36111e-015 -1.27222e-014 3.18055e-015 -3.18055e-015 -6.36111e-015 -4.77083e-015 3.53113e-031 -3.18055e-015 6.36111e-015 -4.72311e-007 4.67177e-007 5.28501e-007 -1.27222e-014 -6.36111e-015 -4.77083e-015 3.53113e-031 -3.18055e-015 6.36111e-015 -4.72311e-007 4.67177e-007 5.28501e-007 -1.27222e-014 -6.36111e-015 -4.77083e-015 -3.18055e-015 -6.36111e-015 -4.77083e-015 3.53113e-031 -3.18055e-015 6.36111e-015 -4.72311e-007 4.67177e-007 5.28501e-007 -1.27222e-014 -6.36111e-015 -4.77083e-015 3.53113e-031 -3.18055e-015 6.36111e-015 -4.72311e-007 4.67177e-007 5.28501e-007 -1.27222e-014 -6.36111e-015 -4.77083e-015 1.64891 -20.7217 11.5843 71.3092 4.47904 14.8065 -14.8371 -7.03935 21.6317 67.1288 24.5346 -27.5841 1.19848e-006 -5.45177e-006 4.28914e-006 -1.19848e-006 5.45177e-006 -4.28914e-006 1.19848e-006 -5.45177e-006 4.28914e-006 5.51738e-033 1.59028e-015 -1.98785e-016 1.19848e-006 -5.45177e-006 4.28914e-006 -1.19848e-006 5.45177e-006 -4.28914e-006 1.19848e-006 -5.45177e-006 4.28914e-006 1.19848e-006 -5.45177e-006 4.28914e-006 -1.19848e-006 5.45177e-006 -4.28914e-006 1.19848e-006 -5.45177e-006 4.28914e-006 5.51738e-033 1.59028e-015 -1.98785e-016 1.19848e-006 -5.45177e-006 4.28914e-006 -1.19848e-006 5.45177e-006 -4.28914e-006 1.19848e-006 -5.45177e-006 4.28914e-006 1.19848e-006 -5.45177e-006 4.28914e-006 -1.19848e-006 5.45177e-006 -4.28914e-006 1.19848e-006 -5.45177e-006 4.28914e-006 6.49755 -20.4414 14.2258 2.7944 43.5799 -0.748449 -10.6484 -16.9731 1.85351 -16.7899 -14.2657 -11.7825 0.249575 27.2746 -1.02924 19.7577 -4.38927 -3.4624 
0.0859414 86.3106 1.86623 -0 -4.59655 -0 -0.196134 2.40584 3.05726 -0.521232 4.79776 6.13083 -0.521232 4.79776 6.13082 20.8774 -27.6855 -9.34147 -0.00144724 7.50087 -10.0029 26.2497 11.1117 -74.8024 -36.7707 -14.8039 -6.36155 -59.3161 -37.7847 -60.9894 -17.2815 39.1039 7.09371 3.20984e-006 -1.57068e-006 3.56192e-006 -6.72205e-007 1.58974e-006 1.43005e-006 -5.29669e-031 6.36111e-015 4.77083e-015 0 0 -0 3.20984e-006 -1.57068e-006 3.56192e-006 -6.72205e-007 1.58974e-006 1.43005e-006 -5.29669e-031 6.36111e-015 4.77083e-015 3.20984e-006 -1.57068e-006 3.56192e-006 -6.72205e-007 1.58974e-006 1.43005e-006 -5.29669e-031 6.36111e-015 4.77083e-015 0 0 -0 3.20984e-006 -1.57068e-006 3.56192e-006 -6.72205e-007 1.58974e-006 1.43005e-006 -5.29669e-031 6.36111e-015 4.77083e-015 3.20984e-006 -1.57068e-006 3.56192e-006 -6.72205e-007 1.58974e-006 1.43005e-006 -5.29669e-031 6.36111e-015 4.77083e-015 1.47141 -20.5806 11.2974 71.5535 4.58815 14.8174 -14.768 -6.98043 21.729 66.9667 24.6544 -27.5377 1.94105e-006 1.56972e-006 -2.04175e-006 3.19123e-006 2.04578e-006 -1.50454e-006 1.94105e-006 1.56972e-006 -2.04175e-006 0 0 -1.78906e-015 1.94105e-006 1.56972e-006 -2.04175e-006 3.19123e-006 2.04578e-006 -1.50454e-006 1.94105e-006 1.56972e-006 -2.04175e-006 1.94105e-006 1.56972e-006 -2.04175e-006 3.19123e-006 2.04578e-006 -1.50454e-006 1.94105e-006 1.56972e-006 -2.04175e-006 0 0 -1.78906e-015 1.94105e-006 1.56972e-006 -2.04175e-006 3.19123e-006 2.04578e-006 -1.50454e-006 1.94105e-006 1.56972e-006 -2.04175e-006 1.94105e-006 1.56972e-006 -2.04175e-006 3.19123e-006 2.04578e-006 -1.50454e-006 1.94105e-006 1.56972e-006 -2.04175e-006 6.48111 -20.8541 14.2215 2.68286 43.1952 -0.673935 -10.562 -16.6672 1.9693 -16.7448 -14.5483 -11.7618 0.361464 26.6854 -1.07577 19.6649 -4.06127 -3.73974 
0.0843339 86.4454 1.73127 -0 -4.12064 -0 -0.208654 2.30612 3.0578 -0.540896 4.59779 6.13143 -0.540896 4.59779 6.13143 20.9136 -27.765 -9.24131 -0.00143944 7.2825 -10.0029 26.2496 11.1118 -74.8024 -36.7707 -14.8039 -6.36155 -59.3161 -37.7847 -60.9894 -17.2931 39.1075 7.09003 -4.7261e-007 4.67023e-007 5.28431e-007 6.71424e-006 -6.52165e-006 1.10739e-005 -6.17947e-031 -3.18055e-015 -1.11319e-014 3.18055e-015 0 -4.77083e-015 -4.7261e-007 4.67023e-007 5.28431e-007 6.71424e-006 -6.52165e-006 1.10739e-005 3.18055e-015 -3.18055e-015 -1.74931e-014 -4.7261e-007 4.67023e-007 5.28431e-007 6.71424e-006 -6.52165e-006 1.10739e-005 3.18055e-015 -3.18055e-015 -1.74931e-014 3.18055e-015 0 -4.77083e-015 -4.7261e-007 4.67023e-007 5.28431e-007 6.71424e-006 -6.52165e-006 1.10739e-005 3.18055e-015 -3.18055e-015 -1.74931e-014 -4.7261e-007 4.67023e-007 5.28431e-007 6.71424e-006 -6.52165e-006 1.10739e-005 3.18055e-015 -3.18055e-015 -1.74931e-014 1.29486 -20.4385 11.0112 71.7978 4.69732 14.828 -14.699 -6.92142 21.8263 66.8043 24.7741 -27.491 1.94109e-006 1.56969e-006 -2.04183e-006 1.04853e-006 1.36822e-006 -7.42804e-006 -1.59028e-015 -1.59028e-015 -3.57812e-015 -1.15865e-031 1.59028e-015 4.17448e-015 1.94109e-006 1.56969e-006 -2.04183e-006 1.04853e-006 1.36822e-006 -7.42804e-006 -3.18055e-015 0 -6.75868e-015 1.94109e-006 1.56969e-006 -2.04183e-006 1.04853e-006 1.36822e-006 -7.42804e-006 -3.18055e-015 0 -6.75868e-015 -1.15865e-031 1.59028e-015 4.17448e-015 1.94109e-006 1.56969e-006 -2.04183e-006 1.04853e-006 1.36822e-006 -7.42804e-006 -3.18055e-015 0 -6.75868e-015 1.94109e-006 1.56969e-006 -2.04183e-006 1.04853e-006 1.36822e-006 -7.42804e-006 -3.18055e-015 0 -6.75868e-015 6.46473 -21.2669 14.2172 2.57291 42.8101 -0.600898 -10.4764 -16.3607 2.08445 -16.6996 -14.83 -11.7409 0.471768 26.0944 -1.12077 19.5738 -3.73195 -4.01656 
